<?xml version="1.0" standalone="no"?>
<!DOCTYPE svg PUBLIC "-//W3C//DTD SVG 20010904//EN"
 "http://www.w3.org/TR/2001/REC-SVG-20010904/DTD/svg10.dtd">
<svg version="1.0" xmlns="http://www.w3.org/2000/svg"
 width="700.000000pt" height="700.000000pt" viewBox="0 0 700.000000 700.000000"
 preserveAspectRatio="xMidYMid meet">
<metadata>
Created by potrace 1.14, written by Peter Selinger 2001-2017
</metadata>
<g transform="translate(0.000000,700.000000) scale(0.100000,-0.100000)"
fill="#000000" stroke="none">
<path d="M2335 5963 c-169 -38 -312 -145 -379 -284 -36 -76 -41 -93 -55 -189
-11 -72 -6 -222 9 -285 16 -63 57 -155 99 -220 79 -125 294 -325 448 -418 156
-94 422 -195 558 -213 28 -3 59 -8 70 -10 53 -11 207 -18 365 -18 390 0 574
36 859 170 198 93 337 189 469 323 109 111 190 249 228 391 23 87 26 240 7
327 -56 248 -274 425 -534 432 -140 4 -256 -32 -405 -125 -111 -69 -167 -80
-299 -59 -99 16 -160 20 -305 19 -179 0 -272 -8 -390 -33 -46 -10 -91 -16
-100 -13 -8 3 -60 33 -115 67 -127 78 -180 102 -273 126 -70 18 -204 24 -257
12z m215 -189 c62 -12 173 -70 255 -133 110 -85 134 -91 249 -62 151 37 199
43 376 45 166 3 300 -9 404 -35 93 -24 144 -26 177 -9 13 7 62 41 109 75 165
122 310 160 455 121 298 -80 364 -470 131 -771 -66 -86 -185 -189 -301 -262
-107 -68 -363 -175 -472 -198 -10 -2 -49 -10 -88 -18 -413 -87 -808 -39 -1181
143 -320 156 -545 375 -580 565 -13 73 -11 238 3 295 34 130 130 224 256 250
44 9 147 6 207 -6z"/>
<path d="M2403 5636 c-88 -29 -155 -95 -179 -175 -51 -171 63 -333 235 -334
182 -1 293 143 256 333 -13 68 -49 120 -109 158 -48 30 -141 39 -203 18z m121
-147 c62 -48 70 -119 20 -178 -72 -86 -194 -19 -181 98 10 86 98 130 161 80z"/>
<path d="M4371 5629 c-173 -76 -227 -269 -116 -415 69 -91 207 -113 325 -54
49 25 115 98 130 145 15 44 8 134 -14 185 -21 50 -79 114 -123 136 -53 26
-146 27 -202 3z m129 -134 c31 -16 72 -75 75 -108 2 -31 -21 -74 -51 -93 -73
-48 -174 -1 -176 83 -2 57 13 94 45 114 38 23 68 24 107 4z"/>
<path d="M2254 4513 c-25 -17 -65 -128 -80 -218 -3 -20 -8 -47 -10 -59 -2 -11
-7 -41 -10 -66 -3 -25 -7 -52 -9 -60 -19 -67 -27 -510 -12 -637 47 -398 200
-744 472 -1068 54 -64 206 -219 270 -275 97 -84 166 -140 245 -201 47 -35 87
-66 90 -69 17 -18 199 -132 219 -137 34 -9 84 12 181 75 246 159 549 427 716
632 177 218 336 522 390 745 39 161 43 181 50 230 3 22 7 51 10 65 22 135 21
451 -1 610 -21 140 -35 218 -72 377 -8 34 -39 62 -63 56 -11 -3 -38 -23 -60
-44 -51 -49 -51 -59 -4 -293 37 -188 39 -246 11 -290 -9 -13 -60 -54 -114 -91
-186 -128 -345 -278 -479 -450 -193 -247 -363 -567 -454 -850 -26 -83 -71
-185 -80 -185 -10 0 -51 95 -88 200 -148 421 -366 774 -657 1066 -116 116
-199 179 -340 260 -59 34 -83 54 -80 64 2 8 7 37 10 64 4 28 8 52 10 55 1 3 6
35 10 71 4 36 16 108 27 160 11 52 22 109 23 125 4 32 -23 103 -46 122 -20 16
-62 25 -75 16z m165 -917 c198 -158 416 -398 520 -571 120 -200 289 -612 343
-835 22 -92 22 -94 33 -159 l7 -43 -93 73 c-354 278 -605 570 -759 884 -71
144 -100 229 -135 394 -37 181 -45 331 -17 331 4 0 50 -33 101 -74z m2190 50
c24 -62 -37 -402 -99 -551 -4 -11 -14 -36 -21 -55 -42 -118 -159 -323 -255
-450 -78 -103 -83 -108 -204 -230 -155 -155 -408 -355 -427 -337 -26 27 147
541 275 819 22 48 64 122 92 165 184 274 547 661 623 663 4 0 12 -11 16 -24z"/>
<path d="M1462 4072 c-66 -139 -89 -204 -107 -307 -2 -11 -7 -36 -10 -55 -4
-19 -8 -132 -10 -250 -5 -283 16 -425 91 -637 20 -54 38 -107 41 -118 12 -42
134 -269 184 -343 143 -212 303 -368 542 -529 224 -152 395 -215 446 -164 66
66 -30 284 -220 495 -124 138 -351 283 -525 336 -40 12 -87 32 -104 45 -155
114 -295 566 -293 945 1 190 40 361 92 401 31 25 67 22 233 -18 117 -28 131
-26 141 23 2 14 0 44 -5 68 -7 35 -16 47 -46 63 -38 22 -110 39 -197 48 -27 3
-86 10 -130 15 -108 13 -108 13 -123 -18z m662 -1876 c16 -11 78 -69 138 -128
97 -95 127 -138 98 -138 -11 0 -199 126 -215 144 -5 7 -27 25 -48 40 -21 16
-69 57 -105 92 -52 51 -64 67 -53 74 15 9 127 -42 185 -84z"/>
<path d="M5175 4073 c-110 -16 -189 -40 -210 -64 -29 -31 -1 -130 40 -145 8
-3 52 4 99 15 47 12 112 24 143 27 50 5 61 3 76 -13 45 -51 83 -235 81 -398
-4 -431 -107 -809 -249 -915 -46 -36 -91 -59 -295 -151 -136 -61 -233 -131
-359 -259 -252 -256 -342 -538 -164 -516 47 5 180 59 283 114 309 165 590 467
768 827 83 168 149 358 166 480 31 217 28 544 -5 729 -22 122 -82 247 -129
266 -40 17 -146 18 -245 3z m-205 -1799 c0 -33 -165 -178 -320 -281 -88 -58
-110 -68 -110 -49 0 48 217 244 347 314 59 31 83 36 83 16z"/>
<path d="M1290 2559 c-19 -4 -48 -10 -65 -13 -200 -34 -478 -149 -684 -283
-220 -143 -449 -464 -393 -549 24 -37 235 -48 912 -48 650 0 710 6 710 68 0
60 -48 70 -380 81 -613 20 -717 25 -895 41 -95 9 -104 21 -58 83 33 43 34 45
103 102 184 154 430 266 705 324 166 34 177 44 141 121 -32 67 -52 83 -96 73z"/>
<path d="M5605 2542 c-42 -9 -113 -104 -97 -129 9 -14 54 -27 196 -59 236 -52
399 -120 555 -232 109 -78 261 -219 261 -244 0 -12 -13 -17 -57 -22 -105 -11
-338 -23 -623 -31 -688 -21 -700 -22 -700 -91 0 -63 47 -67 725 -68 441 0 747
9 829 23 85 15 94 55 37 177 -93 199 -341 421 -606 544 -154 72 -450 147 -520
132z"/>
</g>
</svg>
